# xmcd
#
# Track frame offsets:
#	150
#	17835
#	32977
#	48732
#	64257
#	78957
#	98817
#	111602
#	123440
#	135807
#	149082
#
# Disc length: 2250 seconds
# Revision: 0
# Processed by: cddbd v1.5.2PL0 Copyright (c) Steve Scherf et al.
# Submitted via: dBpowerAMP V12.0
#
DISCID=a008c80b
DTITLE=Al Staehely and 10K Hrs. - Al Staehely and 10K Hrs.
DYEAR=2011
DGENRE=Country
TTITLE0=Don't Go Lookin' For Love
TTITLE1=Trust Me
TTITLE2=Hot Rods and Cool Women
TTITLE3=Longshot
TTITLE4=The Bluer Side of Town
TTITLE5=Ice On Fire
TTITLE6=Coastin'
TTITLE7=Mr. X-Terminator
TTITLE8=Lovin' Tuff
TTITLE9=Low Threshold For Pleasure
TTITLE10=Ice On Fire (Remix)
EXTD=
EXTT0=
EXTT1=
EXTT2=
EXTT3=
EXTT4=
EXTT5=
EXTT6=
EXTT7=
EXTT8=
EXTT9=
EXTT10=
PLAYORDER=
